M48
; DRILL file {KiCad (5.1.2)-1} date 2019/07/23 6:59:28
; FORMAT={-:-/ absolute / metric / decimal}
; #@! TF.CreationDate,2019-07-23T06:59:28+09:00
; #@! TF.GenerationSoftware,Kicad,Pcbnew,(5.1.2)-1
FMAT,2
METRIC
T1C0.400
T2C0.700
T3C0.800
T4C0.950
T5C1.000
T6C1.100
T7C1.110
T8C1.270
T9C1.300
T10C2.700
T11C0.991
T12C1.000
T13C1.702
T14C2.700
T15C2.800
T16C3.429
%
G90
G05
T1
X89.6Y-100.0
X89.6Y-102.8
X89.6Y-106.5
X94.4Y-115.9
X94.4Y-117.1
X94.4Y-133.9
X94.4Y-135.1
X96.6Y-115.9
X96.6Y-117.1
X96.6Y-133.9
X96.6Y-135.1
X98.3Y-109.7
X98.3Y-110.9
X99.04Y-66.51
X100.5Y-109.7
X100.5Y-110.9
X101.4Y-100.0
X101.4Y-102.8
X101.4Y-106.5
X112.3Y-97.9
X112.3Y-99.1
X112.4Y-115.9
X112.4Y-117.1
X112.4Y-133.9
X112.4Y-135.1
X114.5Y-97.9
X114.5Y-99.1
X114.6Y-115.9
X114.6Y-117.1
X114.6Y-133.9
X114.6Y-135.1
X117.889Y-88.906
X127.629Y-79.629
X128.371Y-80.371
X130.25Y-79.0
X130.25Y-81.0
X130.25Y-84.5
X130.25Y-86.5
X130.4Y-97.9
X130.4Y-99.1
X130.4Y-115.9
X130.4Y-117.1
X130.4Y-133.9
X130.4Y-135.1
X132.6Y-97.9
X132.6Y-99.1
X132.6Y-115.9
X132.6Y-117.1
X132.6Y-133.9
X132.6Y-135.1
X133.25Y-88.5
X134.25Y-89.5
X134.475Y-77.5
X135.25Y-90.5
X135.525Y-77.5
X136.25Y-91.5
X139.699Y-87.301
X140.0Y-105.75
X140.5Y-92.5
X140.65Y-107.85
X141.25Y-87.75
X141.25Y-99.0
X141.5Y-92.5
X142.25Y-101.25
X142.5Y-92.5
X143.5Y-92.5
X143.6Y-100.0
X143.6Y-102.8
X143.6Y-106.5
X143.7Y-109.7
X143.7Y-110.9
X144.5Y-92.5
X145.5Y-92.5
X145.9Y-109.7
X145.9Y-110.9
X146.5Y-92.5
X147.5Y-92.5
X148.4Y-115.9
X148.4Y-117.1
X148.4Y-135.1
X150.6Y-115.9
X150.6Y-117.1
X150.6Y-133.9
X150.6Y-135.1
X152.25Y-98.5
X153.25Y-99.5
X155.4Y-100.0
X155.4Y-102.8
X155.4Y-106.5
T2
X144.0Y-82.5
X144.0Y-87.58
X121.25Y-62.25
X121.25Y-67.33
X139.75Y-75.92
X139.75Y-81.0
X123.5Y-62.25
X123.5Y-67.33
X119.035Y-62.25
X119.035Y-67.33
X125.75Y-62.25
X125.75Y-67.33
T3
X116.5Y-62.25
X116.5Y-67.25
X111.25Y-62.25
X113.25Y-62.25
X128.25Y-62.25
X128.25Y-67.25
X131.5Y-62.25
X133.5Y-62.25
X148.0Y-82.62
X148.0Y-87.5
T4
X99.56Y-76.75
X99.56Y-92.0
X102.1Y-76.75
X102.1Y-92.0
X104.64Y-76.75
X104.64Y-92.0
X107.18Y-76.75
X107.18Y-92.0
X109.72Y-76.75
X109.72Y-92.0
X112.26Y-76.75
X112.26Y-92.0
X114.8Y-76.75
X114.8Y-92.0
X117.34Y-76.75
X117.34Y-92.0
X119.88Y-76.75
X119.88Y-92.0
X122.42Y-76.75
X122.42Y-92.0
X124.96Y-76.75
X124.96Y-92.0
X127.5Y-76.75
X127.5Y-92.0
T5
X111.2Y-80.1
X111.2Y-85.18
X126.5Y-112.25
X131.58Y-112.25
X86.5Y-119.92
X86.5Y-125.0
X98.2Y-80.1
X98.2Y-85.18
X90.5Y-63.0
X90.5Y-65.54
X90.5Y-68.08
X90.5Y-70.62
X90.5Y-73.16
X90.5Y-75.7
X90.5Y-78.24
X90.5Y-80.78
X90.5Y-83.32
X114.45Y-80.1
X114.45Y-85.18
X124.2Y-80.1
X124.2Y-85.18
X108.5Y-112.25
X113.58Y-112.25
X140.5Y-119.92
X140.5Y-125.0
X122.5Y-137.92
X122.5Y-143.0
X87.0Y-59.575
X87.0Y-62.115
X104.5Y-119.92
X104.5Y-125.0
X94.95Y-80.1
X94.95Y-85.18
X104.7Y-80.1
X104.7Y-85.18
X120.95Y-80.1
X120.95Y-85.18
X104.5Y-137.92
X104.5Y-143.0
X86.5Y-137.92
X86.5Y-143.0
X122.5Y-119.92
X122.5Y-125.0
X140.5Y-137.92
X140.5Y-143.0
X96.3Y-61.8
X96.3Y-64.3
X101.45Y-80.1
X101.45Y-85.18
X107.95Y-80.1
X107.95Y-85.18
X87.0Y-80.8
X87.0Y-83.34
X87.0Y-85.88
X87.0Y-88.42
X117.7Y-80.1
X117.7Y-85.18
T6
X151.4Y-61.1
X151.4Y-65.6
X157.9Y-61.1
X157.9Y-65.6
T7
X98.615Y-70.29
X98.615Y-72.83
X101.155Y-70.29
X101.155Y-72.83
X103.695Y-70.29
X103.695Y-72.83
X106.235Y-70.29
X106.235Y-72.83
X108.775Y-70.29
X108.775Y-72.83
X111.315Y-70.29
X111.315Y-72.83
X113.855Y-70.29
X113.855Y-72.83
X116.395Y-70.29
X116.395Y-72.83
X118.935Y-70.29
X118.935Y-72.83
X121.475Y-70.29
X121.475Y-72.83
X124.015Y-70.29
X124.015Y-72.83
X126.555Y-70.29
X126.555Y-72.83
X129.095Y-70.29
X129.095Y-72.83
X131.635Y-70.29
X131.635Y-72.83
X134.175Y-70.29
X134.175Y-72.83
X136.715Y-70.29
X136.715Y-72.83
X139.255Y-70.29
X139.255Y-72.83
X141.795Y-70.29
X141.795Y-72.83
X144.335Y-70.29
X144.335Y-72.83
X144.335Y-75.37
X144.335Y-77.91
X146.875Y-70.29
X146.875Y-72.83
X146.875Y-75.37
X146.875Y-77.91
T8
X144.5Y-143.05
X149.5Y-145.15
X90.5Y-125.05
X95.5Y-127.15
X144.5Y-125.05
X149.5Y-127.15
X126.5Y-125.05
X131.5Y-127.15
X108.5Y-143.05
X113.5Y-145.15
X108.5Y-107.05
X113.5Y-109.15
X108.5Y-125.05
X113.5Y-127.15
X126.5Y-107.05
X131.5Y-109.15
X126.5Y-143.05
X131.5Y-145.15
X90.5Y-143.05
X95.5Y-145.15
T10
X92.0Y-56.11
X92.0Y-90.21
X153.2Y-56.11
X153.2Y-90.21
T11
X100.72Y-135.05
X154.72Y-135.05
X100.72Y-117.05
X154.72Y-117.05
X136.72Y-117.05
X118.72Y-135.05
X118.72Y-99.05
X118.72Y-117.05
X136.72Y-99.05
X136.72Y-135.05
T12
X93.3Y-101.05
X97.7Y-101.05
X147.3Y-101.05
X151.7Y-101.05
T13
X90.0Y-139.25
X101.0Y-139.25
X144.0Y-139.25
X155.0Y-139.25
X90.0Y-121.25
X101.0Y-121.25
X144.0Y-121.25
X155.0Y-121.25
X126.0Y-121.25
X137.0Y-121.25
X108.0Y-139.25
X119.0Y-139.25
X108.0Y-103.25
X119.0Y-103.25
X108.0Y-121.25
X119.0Y-121.25
X126.0Y-103.25
X137.0Y-103.25
X126.0Y-139.25
X137.0Y-139.25
T14
X88.0Y-147.0
X157.0Y-53.0
X88.0Y-53.0
X157.0Y-147.0
X88.0Y-111.0
X157.0Y-111.0
T15
X93.745Y-71.25
X93.745Y-94.25
X151.745Y-71.25
X151.745Y-94.25
T16
X95.5Y-139.25
X149.5Y-139.25
X95.5Y-121.25
X149.5Y-121.25
X131.5Y-121.25
X113.5Y-139.25
X113.5Y-103.25
X113.5Y-121.25
X131.5Y-103.25
X131.5Y-139.25
T5
G00X105.0Y-59.25
M15
G01X105.0Y-57.75
M16
G05
G00X140.0Y-59.25
M15
G01X140.0Y-57.75
M16
G05
G00X122.5Y-59.25
M15
G01X122.5Y-57.75
M16
G05
T9
G00X105.6Y-53.9
M15
G01X104.4Y-53.9
M16
G05
G00X140.6Y-53.9
M15
G01X139.4Y-53.9
M16
G05
G00X123.1Y-53.9
M15
G01X121.9Y-53.9
M16
G05
T0
M30
