G04 #@! TF.GenerationSoftware,KiCad,Pcbnew,(5.1.2)-1*
G04 #@! TF.CreationDate,2019-07-23T06:59:24+09:00*
G04 #@! TF.ProjectId,ORCA_MINI,4f524341-5f4d-4494-9e49-2e6b69636164,rev?*
G04 #@! TF.SameCoordinates,Original*
G04 #@! TF.FileFunction,Profile,NP*
%FSLAX46Y46*%
G04 Gerber Fmt 4.6, Leading zero omitted, Abs format (unit mm)*
G04 Created by KiCad (PCBNEW (5.1.2)-1) date 2019-07-23 06:59:24*
%MOMM*%
%LPD*%
G04 APERTURE LIST*
%ADD10C,0.050000*%
G04 APERTURE END LIST*
D10*
X145250000Y-50000000D02*
X155000000Y-50000000D01*
X145250000Y-51750000D02*
X145250000Y-50000000D01*
X143250000Y-51750000D02*
X145250000Y-51750000D01*
X143250000Y-50000000D02*
X143250000Y-51750000D01*
X136750000Y-50000000D02*
X143250000Y-50000000D01*
X136750000Y-51750000D02*
X136750000Y-50000000D01*
X134750000Y-51750000D02*
X136750000Y-51750000D01*
X134750000Y-50000000D02*
X134750000Y-51750000D01*
X127750000Y-50000000D02*
X134750000Y-50000000D01*
X127750000Y-51750000D02*
X127750000Y-50000000D01*
X125750000Y-51750000D02*
X127750000Y-51750000D01*
X125750000Y-50000000D02*
X125750000Y-51750000D01*
X119250000Y-50000000D02*
X125750000Y-50000000D01*
X119250000Y-51750000D02*
X119250000Y-50000000D01*
X117250000Y-51750000D02*
X119250000Y-51750000D01*
X117250000Y-50000000D02*
X117250000Y-51750000D01*
X110250000Y-50000000D02*
X117250000Y-50000000D01*
X110250000Y-51750000D02*
X110250000Y-50000000D01*
X108250000Y-51750000D02*
X110250000Y-51750000D01*
X108250000Y-50000000D02*
X108250000Y-51750000D01*
X101750000Y-50000000D02*
X108250000Y-50000000D01*
X101750000Y-51750000D02*
X101750000Y-50000000D01*
X99750000Y-51750000D02*
X101750000Y-51750000D01*
X99750000Y-50000000D02*
X99750000Y-51750000D01*
X90000000Y-50000000D02*
X99750000Y-50000000D01*
X155000000Y-50000000D02*
X157000000Y-50000000D01*
X157000000Y-50000000D02*
G75*
G02X160000000Y-53000000I0J-3000000D01*
G01*
X160000000Y-55000000D02*
X160000000Y-53000000D01*
X88000000Y-50000000D02*
X90000000Y-50000000D01*
X85000000Y-53000000D02*
G75*
G02X88000000Y-50000000I3000000J0D01*
G01*
X85000000Y-55000000D02*
X85000000Y-53000000D01*
X160000000Y-55000000D02*
X160000000Y-150000000D01*
X85000000Y-150000000D02*
X85000000Y-55000000D01*
X160000000Y-150000000D02*
X85000000Y-150000000D01*
M02*
